<mxfile host="app.diagrams.net" modified="2024-06-07T08:44:49.899Z" agent="Mozilla/5.0 (Windows NT 10.0; Win64; x64) AppleWebKit/537.36 (KHTML, like Gecko) Chrome/125.0.0.0 Safari/537.36" etag="6Bi8Awbzy0I2V5ZCY84z" version="24.4.13" type="github">
  <diagram name="240607" id="OrIMNrxiimZ9mcyyvP84">
    <mxGraphModel dx="1214" dy="1347" grid="1" gridSize="10" guides="1" tooltips="1" connect="1" arrows="1" fold="1" page="1" pageScale="1" pageWidth="827" pageHeight="1169" math="0" shadow="0">
      <root>
        <mxCell id="0" />
        <mxCell id="1" parent="0" />
        <mxCell id="g6vXPiDDwrNY5lImc1DM-3" value="학생" style="whiteSpace=wrap;html=1;align=center;fillColor=#BABABA;" vertex="1" parent="1">
          <mxGeometry x="210" y="580" width="100" height="40" as="geometry" />
        </mxCell>
        <mxCell id="g6vXPiDDwrNY5lImc1DM-4" value="&lt;b&gt;&lt;u&gt;학번&lt;/u&gt;&lt;/b&gt;" style="ellipse;whiteSpace=wrap;html=1;align=center;" vertex="1" parent="1">
          <mxGeometry x="70" y="510" width="100" height="40" as="geometry" />
        </mxCell>
        <mxCell id="g6vXPiDDwrNY5lImc1DM-5" value="이름" style="ellipse;whiteSpace=wrap;html=1;align=center;" vertex="1" parent="1">
          <mxGeometry x="70" y="570" width="100" height="40" as="geometry" />
        </mxCell>
        <mxCell id="g6vXPiDDwrNY5lImc1DM-6" value="키" style="ellipse;whiteSpace=wrap;html=1;align=center;" vertex="1" parent="1">
          <mxGeometry x="70" y="630" width="100" height="40" as="geometry" />
        </mxCell>
        <mxCell id="g6vXPiDDwrNY5lImc1DM-11" value="학과" style="whiteSpace=wrap;html=1;align=center;fillColor=#BABABA;" vertex="1" parent="1">
          <mxGeometry x="400" y="790" width="100" height="40" as="geometry" />
        </mxCell>
        <mxCell id="g6vXPiDDwrNY5lImc1DM-12" value="&lt;b&gt;&lt;u&gt;학과코드&lt;/u&gt;&lt;/b&gt;" style="ellipse;whiteSpace=wrap;html=1;align=center;" vertex="1" parent="1">
          <mxGeometry x="460" y="880" width="100" height="40" as="geometry" />
        </mxCell>
        <mxCell id="g6vXPiDDwrNY5lImc1DM-13" value="학과명" style="ellipse;whiteSpace=wrap;html=1;align=center;" vertex="1" parent="1">
          <mxGeometry x="320" y="880" width="100" height="40" as="geometry" />
        </mxCell>
        <mxCell id="g6vXPiDDwrNY5lImc1DM-14" value="교수" style="whiteSpace=wrap;html=1;align=center;fillColor=#BABABA;" vertex="1" parent="1">
          <mxGeometry x="610" y="580" width="100" height="40" as="geometry" />
        </mxCell>
        <mxCell id="g6vXPiDDwrNY5lImc1DM-15" value="&lt;b&gt;&lt;u&gt;교수코드&lt;/u&gt;&lt;/b&gt;" style="ellipse;whiteSpace=wrap;html=1;align=center;" vertex="1" parent="1">
          <mxGeometry x="740" y="510" width="100" height="40" as="geometry" />
        </mxCell>
        <mxCell id="g6vXPiDDwrNY5lImc1DM-16" value="교수명" style="ellipse;whiteSpace=wrap;html=1;align=center;" vertex="1" parent="1">
          <mxGeometry x="740" y="570" width="100" height="40" as="geometry" />
        </mxCell>
        <mxCell id="g6vXPiDDwrNY5lImc1DM-17" value="학과코드(FK)" style="ellipse;whiteSpace=wrap;html=1;align=center;" vertex="1" parent="1">
          <mxGeometry x="740" y="630" width="100" height="40" as="geometry" />
        </mxCell>
        <mxCell id="g6vXPiDDwrNY5lImc1DM-18" value="학과코드(FK)" style="ellipse;whiteSpace=wrap;html=1;align=center;" vertex="1" parent="1">
          <mxGeometry x="70" y="690" width="100" height="40" as="geometry" />
        </mxCell>
        <mxCell id="g6vXPiDDwrNY5lImc1DM-23" value="과목" style="whiteSpace=wrap;html=1;align=center;fillColor=#BABABA;" vertex="1" parent="1">
          <mxGeometry x="620" y="210" width="100" height="40" as="geometry" />
        </mxCell>
        <mxCell id="g6vXPiDDwrNY5lImc1DM-24" value="&lt;b&gt;&lt;u&gt;과목코드&lt;/u&gt;&lt;/b&gt;" style="ellipse;whiteSpace=wrap;html=1;align=center;" vertex="1" parent="1">
          <mxGeometry x="750" y="140" width="100" height="40" as="geometry" />
        </mxCell>
        <mxCell id="g6vXPiDDwrNY5lImc1DM-25" value="과목명" style="ellipse;whiteSpace=wrap;html=1;align=center;" vertex="1" parent="1">
          <mxGeometry x="750" y="200" width="100" height="40" as="geometry" />
        </mxCell>
        <mxCell id="g6vXPiDDwrNY5lImc1DM-26" value="교수코드(FK)" style="ellipse;whiteSpace=wrap;html=1;align=center;" vertex="1" parent="1">
          <mxGeometry x="750" y="80" width="100" height="40" as="geometry" />
        </mxCell>
        <mxCell id="g6vXPiDDwrNY5lImc1DM-27" value="시작일" style="ellipse;whiteSpace=wrap;html=1;align=center;" vertex="1" parent="1">
          <mxGeometry x="750" y="250" width="100" height="40" as="geometry" />
        </mxCell>
        <mxCell id="g6vXPiDDwrNY5lImc1DM-28" value="종료일" style="ellipse;whiteSpace=wrap;html=1;align=center;" vertex="1" parent="1">
          <mxGeometry x="750" y="310" width="100" height="40" as="geometry" />
        </mxCell>
        <mxCell id="g6vXPiDDwrNY5lImc1DM-39" value="" style="endArrow=none;html=1;rounded=0;exitX=0.5;exitY=1;exitDx=0;exitDy=0;entryX=0.5;entryY=0;entryDx=0;entryDy=0;" edge="1" parent="1" source="g6vXPiDDwrNY5lImc1DM-11" target="g6vXPiDDwrNY5lImc1DM-13">
          <mxGeometry relative="1" as="geometry">
            <mxPoint x="480" y="650" as="sourcePoint" />
            <mxPoint x="640" y="650" as="targetPoint" />
          </mxGeometry>
        </mxCell>
        <mxCell id="g6vXPiDDwrNY5lImc1DM-40" value="" style="endArrow=none;html=1;rounded=0;exitX=0.5;exitY=1;exitDx=0;exitDy=0;entryX=0.5;entryY=0;entryDx=0;entryDy=0;" edge="1" parent="1" target="g6vXPiDDwrNY5lImc1DM-12">
          <mxGeometry relative="1" as="geometry">
            <mxPoint x="450" y="830" as="sourcePoint" />
            <mxPoint x="494" y="881" as="targetPoint" />
          </mxGeometry>
        </mxCell>
        <mxCell id="g6vXPiDDwrNY5lImc1DM-41" value="" style="endArrow=none;html=1;rounded=0;exitX=0.5;exitY=1;exitDx=0;exitDy=0;entryX=0;entryY=0.25;entryDx=0;entryDy=0;" edge="1" parent="1" target="g6vXPiDDwrNY5lImc1DM-3">
          <mxGeometry relative="1" as="geometry">
            <mxPoint x="170" y="535" as="sourcePoint" />
            <mxPoint x="230" y="585" as="targetPoint" />
          </mxGeometry>
        </mxCell>
        <mxCell id="g6vXPiDDwrNY5lImc1DM-42" value="" style="endArrow=none;html=1;rounded=0;exitX=1;exitY=0.5;exitDx=0;exitDy=0;" edge="1" parent="1" source="g6vXPiDDwrNY5lImc1DM-5">
          <mxGeometry relative="1" as="geometry">
            <mxPoint x="180" y="545" as="sourcePoint" />
            <mxPoint x="210" y="600" as="targetPoint" />
          </mxGeometry>
        </mxCell>
        <mxCell id="g6vXPiDDwrNY5lImc1DM-45" value="" style="endArrow=none;html=1;rounded=0;exitX=1;exitY=0.5;exitDx=0;exitDy=0;entryX=0;entryY=0.75;entryDx=0;entryDy=0;" edge="1" parent="1" source="g6vXPiDDwrNY5lImc1DM-6" target="g6vXPiDDwrNY5lImc1DM-3">
          <mxGeometry relative="1" as="geometry">
            <mxPoint x="190" y="610" as="sourcePoint" />
            <mxPoint x="240" y="620" as="targetPoint" />
          </mxGeometry>
        </mxCell>
        <mxCell id="g6vXPiDDwrNY5lImc1DM-46" value="" style="endArrow=none;html=1;rounded=0;exitX=0;exitY=0.75;exitDx=0;exitDy=0;entryX=0.97;entryY=0.35;entryDx=0;entryDy=0;entryPerimeter=0;" edge="1" parent="1" source="g6vXPiDDwrNY5lImc1DM-3" target="g6vXPiDDwrNY5lImc1DM-18">
          <mxGeometry relative="1" as="geometry">
            <mxPoint x="200" y="620" as="sourcePoint" />
            <mxPoint x="250" y="630" as="targetPoint" />
          </mxGeometry>
        </mxCell>
        <mxCell id="g6vXPiDDwrNY5lImc1DM-48" value="소속" style="shape=rhombus;perimeter=rhombusPerimeter;whiteSpace=wrap;html=1;align=center;fillColor=#99FF99;" vertex="1" parent="1">
          <mxGeometry x="390" y="570" width="120" height="60" as="geometry" />
        </mxCell>
        <mxCell id="g6vXPiDDwrNY5lImc1DM-54" value="" style="endArrow=none;html=1;rounded=0;dashed=1;dashPattern=1 2;entryX=0;entryY=0.5;entryDx=0;entryDy=0;exitX=1;exitY=0.5;exitDx=0;exitDy=0;" edge="1" parent="1" source="g6vXPiDDwrNY5lImc1DM-3" target="g6vXPiDDwrNY5lImc1DM-48">
          <mxGeometry relative="1" as="geometry">
            <mxPoint x="460" y="640" as="sourcePoint" />
            <mxPoint x="460" y="800" as="targetPoint" />
          </mxGeometry>
        </mxCell>
        <mxCell id="g6vXPiDDwrNY5lImc1DM-55" value="N" style="resizable=0;html=1;whiteSpace=wrap;align=left;verticalAlign=bottom;" connectable="0" vertex="1" parent="g6vXPiDDwrNY5lImc1DM-54">
          <mxGeometry x="-1" relative="1" as="geometry" />
        </mxCell>
        <mxCell id="g6vXPiDDwrNY5lImc1DM-56" value="1" style="resizable=0;html=1;whiteSpace=wrap;align=right;verticalAlign=bottom;" connectable="0" vertex="1" parent="g6vXPiDDwrNY5lImc1DM-54">
          <mxGeometry x="1" relative="1" as="geometry" />
        </mxCell>
        <mxCell id="g6vXPiDDwrNY5lImc1DM-57" value="" style="endArrow=none;html=1;rounded=0;dashed=1;dashPattern=1 2;entryX=1;entryY=0.5;entryDx=0;entryDy=0;exitX=0;exitY=0.5;exitDx=0;exitDy=0;" edge="1" parent="1" source="g6vXPiDDwrNY5lImc1DM-14" target="g6vXPiDDwrNY5lImc1DM-48">
          <mxGeometry relative="1" as="geometry">
            <mxPoint x="320" y="610" as="sourcePoint" />
            <mxPoint x="400" y="610" as="targetPoint" />
          </mxGeometry>
        </mxCell>
        <mxCell id="g6vXPiDDwrNY5lImc1DM-58" value="N" style="resizable=0;html=1;whiteSpace=wrap;align=left;verticalAlign=bottom;" connectable="0" vertex="1" parent="g6vXPiDDwrNY5lImc1DM-57">
          <mxGeometry x="-1" relative="1" as="geometry" />
        </mxCell>
        <mxCell id="g6vXPiDDwrNY5lImc1DM-59" value="1" style="resizable=0;html=1;whiteSpace=wrap;align=right;verticalAlign=bottom;" connectable="0" vertex="1" parent="g6vXPiDDwrNY5lImc1DM-57">
          <mxGeometry x="1" relative="1" as="geometry" />
        </mxCell>
        <mxCell id="g6vXPiDDwrNY5lImc1DM-60" value="" style="endArrow=none;html=1;rounded=0;dashed=1;dashPattern=1 2;entryX=0.5;entryY=1;entryDx=0;entryDy=0;exitX=0.5;exitY=0;exitDx=0;exitDy=0;" edge="1" parent="1" source="g6vXPiDDwrNY5lImc1DM-11" target="g6vXPiDDwrNY5lImc1DM-48">
          <mxGeometry relative="1" as="geometry">
            <mxPoint x="310" y="690" as="sourcePoint" />
            <mxPoint x="470" y="690" as="targetPoint" />
          </mxGeometry>
        </mxCell>
        <mxCell id="g6vXPiDDwrNY5lImc1DM-61" value="1" style="resizable=0;html=1;whiteSpace=wrap;align=right;verticalAlign=bottom;" connectable="0" vertex="1" parent="g6vXPiDDwrNY5lImc1DM-60">
          <mxGeometry x="1" relative="1" as="geometry" />
        </mxCell>
        <mxCell id="g6vXPiDDwrNY5lImc1DM-62" value="강의" style="shape=rhombus;perimeter=rhombusPerimeter;whiteSpace=wrap;html=1;align=center;fillColor=#99FF99;" vertex="1" parent="1">
          <mxGeometry x="610" y="400" width="120" height="60" as="geometry" />
        </mxCell>
        <mxCell id="g6vXPiDDwrNY5lImc1DM-70" value="" style="endArrow=none;html=1;rounded=0;dashed=1;dashPattern=1 2;entryX=0.5;entryY=1;entryDx=0;entryDy=0;exitX=0.57;exitY=-0.1;exitDx=0;exitDy=0;exitPerimeter=0;" edge="1" parent="1" source="g6vXPiDDwrNY5lImc1DM-14">
          <mxGeometry relative="1" as="geometry">
            <mxPoint x="669.5" y="630" as="sourcePoint" />
            <mxPoint x="669.5" y="470" as="targetPoint" />
          </mxGeometry>
        </mxCell>
        <mxCell id="g6vXPiDDwrNY5lImc1DM-71" value="1" style="resizable=0;html=1;whiteSpace=wrap;align=right;verticalAlign=bottom;" connectable="0" vertex="1" parent="g6vXPiDDwrNY5lImc1DM-70">
          <mxGeometry x="1" relative="1" as="geometry" />
        </mxCell>
        <mxCell id="g6vXPiDDwrNY5lImc1DM-72" value="" style="endArrow=none;html=1;rounded=0;dashed=1;dashPattern=1 2;entryX=0.5;entryY=0;entryDx=0;entryDy=0;exitX=0.5;exitY=1;exitDx=0;exitDy=0;" edge="1" parent="1" source="g6vXPiDDwrNY5lImc1DM-23" target="g6vXPiDDwrNY5lImc1DM-62">
          <mxGeometry relative="1" as="geometry">
            <mxPoint x="580" y="400" as="sourcePoint" />
            <mxPoint x="582.5" y="294" as="targetPoint" />
          </mxGeometry>
        </mxCell>
        <mxCell id="g6vXPiDDwrNY5lImc1DM-75" value="N" style="edgeLabel;html=1;align=center;verticalAlign=middle;resizable=0;points=[];" vertex="1" connectable="0" parent="g6vXPiDDwrNY5lImc1DM-72">
          <mxGeometry x="0.7333" y="-3" relative="1" as="geometry">
            <mxPoint as="offset" />
          </mxGeometry>
        </mxCell>
        <mxCell id="g6vXPiDDwrNY5lImc1DM-76" value="수강" style="shape=rhombus;perimeter=rhombusPerimeter;whiteSpace=wrap;html=1;align=center;fillColor=#99FF99;" vertex="1" parent="1">
          <mxGeometry x="200" y="200" width="120" height="60" as="geometry" />
        </mxCell>
        <mxCell id="g6vXPiDDwrNY5lImc1DM-78" value="" style="endArrow=none;html=1;rounded=0;dashed=1;dashPattern=1 2;entryX=0.5;entryY=1;entryDx=0;entryDy=0;exitX=0.5;exitY=0;exitDx=0;exitDy=0;" edge="1" parent="1" source="g6vXPiDDwrNY5lImc1DM-3" target="g6vXPiDDwrNY5lImc1DM-76">
          <mxGeometry relative="1" as="geometry">
            <mxPoint x="270" y="270" as="sourcePoint" />
            <mxPoint x="270" y="420" as="targetPoint" />
          </mxGeometry>
        </mxCell>
        <mxCell id="g6vXPiDDwrNY5lImc1DM-79" value="N" style="edgeLabel;html=1;align=center;verticalAlign=middle;resizable=0;points=[];" vertex="1" connectable="0" parent="g6vXPiDDwrNY5lImc1DM-78">
          <mxGeometry x="0.7333" y="-3" relative="1" as="geometry">
            <mxPoint as="offset" />
          </mxGeometry>
        </mxCell>
        <mxCell id="g6vXPiDDwrNY5lImc1DM-80" value="" style="endArrow=none;html=1;rounded=0;dashed=1;dashPattern=1 2;entryX=1;entryY=0.5;entryDx=0;entryDy=0;exitX=0;exitY=0.5;exitDx=0;exitDy=0;" edge="1" parent="1" source="g6vXPiDDwrNY5lImc1DM-23" target="g6vXPiDDwrNY5lImc1DM-76">
          <mxGeometry relative="1" as="geometry">
            <mxPoint x="270" y="590" as="sourcePoint" />
            <mxPoint x="270" y="270" as="targetPoint" />
          </mxGeometry>
        </mxCell>
        <mxCell id="g6vXPiDDwrNY5lImc1DM-83" value="M" style="edgeLabel;html=1;align=center;verticalAlign=middle;resizable=0;points=[];" vertex="1" connectable="0" parent="g6vXPiDDwrNY5lImc1DM-80">
          <mxGeometry x="0.6" y="-1" relative="1" as="geometry">
            <mxPoint as="offset" />
          </mxGeometry>
        </mxCell>
        <mxCell id="g6vXPiDDwrNY5lImc1DM-84" value="" style="endArrow=none;html=1;rounded=0;exitX=0.5;exitY=1;exitDx=0;exitDy=0;entryX=0;entryY=0.5;entryDx=0;entryDy=0;" edge="1" parent="1" target="g6vXPiDDwrNY5lImc1DM-16">
          <mxGeometry relative="1" as="geometry">
            <mxPoint x="710" y="600" as="sourcePoint" />
            <mxPoint x="770" y="650" as="targetPoint" />
          </mxGeometry>
        </mxCell>
        <mxCell id="g6vXPiDDwrNY5lImc1DM-85" value="" style="endArrow=none;html=1;rounded=0;entryX=1;entryY=0.75;entryDx=0;entryDy=0;exitX=0;exitY=0.5;exitDx=0;exitDy=0;" edge="1" parent="1" source="g6vXPiDDwrNY5lImc1DM-17" target="g6vXPiDDwrNY5lImc1DM-14">
          <mxGeometry relative="1" as="geometry">
            <mxPoint x="690" y="670" as="sourcePoint" />
            <mxPoint x="720" y="660" as="targetPoint" />
          </mxGeometry>
        </mxCell>
        <mxCell id="g6vXPiDDwrNY5lImc1DM-86" value="" style="endArrow=none;html=1;rounded=0;entryX=1;entryY=0.75;entryDx=0;entryDy=0;exitX=0;exitY=0.5;exitDx=0;exitDy=0;" edge="1" parent="1">
          <mxGeometry relative="1" as="geometry">
            <mxPoint x="750" y="270" as="sourcePoint" />
            <mxPoint x="720" y="230" as="targetPoint" />
          </mxGeometry>
        </mxCell>
        <mxCell id="g6vXPiDDwrNY5lImc1DM-87" value="" style="endArrow=none;html=1;rounded=0;entryX=1;entryY=0.5;entryDx=0;entryDy=0;exitX=0;exitY=0.5;exitDx=0;exitDy=0;" edge="1" parent="1" source="g6vXPiDDwrNY5lImc1DM-28" target="g6vXPiDDwrNY5lImc1DM-23">
          <mxGeometry relative="1" as="geometry">
            <mxPoint x="760" y="280" as="sourcePoint" />
            <mxPoint x="730" y="240" as="targetPoint" />
          </mxGeometry>
        </mxCell>
        <mxCell id="g6vXPiDDwrNY5lImc1DM-88" value="" style="endArrow=none;html=1;rounded=0;entryX=1;entryY=0.5;entryDx=0;entryDy=0;exitX=0;exitY=0.5;exitDx=0;exitDy=0;" edge="1" parent="1" source="g6vXPiDDwrNY5lImc1DM-25" target="g6vXPiDDwrNY5lImc1DM-23">
          <mxGeometry relative="1" as="geometry">
            <mxPoint x="760" y="280" as="sourcePoint" />
            <mxPoint x="730" y="240" as="targetPoint" />
          </mxGeometry>
        </mxCell>
        <mxCell id="g6vXPiDDwrNY5lImc1DM-89" value="" style="endArrow=none;html=1;rounded=0;entryX=1;entryY=0.5;entryDx=0;entryDy=0;exitX=0;exitY=0.5;exitDx=0;exitDy=0;" edge="1" parent="1" source="g6vXPiDDwrNY5lImc1DM-24" target="g6vXPiDDwrNY5lImc1DM-23">
          <mxGeometry relative="1" as="geometry">
            <mxPoint x="760" y="340" as="sourcePoint" />
            <mxPoint x="730" y="240" as="targetPoint" />
          </mxGeometry>
        </mxCell>
        <mxCell id="g6vXPiDDwrNY5lImc1DM-90" value="" style="endArrow=none;html=1;rounded=0;entryX=1;entryY=0.5;entryDx=0;entryDy=0;exitX=0;exitY=0.5;exitDx=0;exitDy=0;" edge="1" parent="1" source="g6vXPiDDwrNY5lImc1DM-26" target="g6vXPiDDwrNY5lImc1DM-23">
          <mxGeometry relative="1" as="geometry">
            <mxPoint x="760" y="170" as="sourcePoint" />
            <mxPoint x="730" y="240" as="targetPoint" />
          </mxGeometry>
        </mxCell>
      </root>
    </mxGraphModel>
  </diagram>
</mxfile>
